<?xml version="1.0" standalone="no"?>
<!DOCTYPE svg PUBLIC "-//W3C//DTD SVG 20010904//EN"
 "http://www.w3.org/TR/2001/REC-SVG-20010904/DTD/svg10.dtd">
<svg version="1.0" xmlns="http://www.w3.org/2000/svg"
 width="693.000000pt" height="693.000000pt" viewBox="0 0 693.000000 693.000000"
 preserveAspectRatio="xMidYMid meet">
<metadata>
Created by potrace 1.14, written by Peter Selinger 2001-2017
</metadata>
<g transform="translate(0.000000,693.000000) scale(0.100000,-0.100000)"
fill="#000000" stroke="none">
<path d="M4135 6772 c-121 -67 -331 -229 -428 -329 l-37 -39 17 -106 17 -105
-64 -99 c-35 -55 -106 -181 -157 -281 -77 -151 -95 -179 -103 -163 -16 31 -40
132 -40 172 0 53 -15 47 -35 -12 -16 -47 -16 -56 0 -123 9 -40 24 -88 33 -107
17 -34 17 -37 -9 -105 -42 -110 -44 -117 -24 -113 11 2 33 44 64 118 26 63 59
142 75 176 l27 61 82 23 c95 27 174 67 234 116 41 34 100 106 72 88 -8 -5 -40
-26 -71 -47 -93 -60 -278 -127 -278 -99 0 16 22 28 75 41 116 29 256 113 307
184 23 32 19 31 -47 -13 -60 -41 -155 -86 -205 -100 -25 -6 -53 -14 -63 -16
-15 -5 -14 3 12 53 16 32 52 94 78 138 l49 80 70 6 c89 9 155 30 229 74 97 59
123 83 135 123 27 93 61 432 43 432 -4 0 -30 -13 -58 -28z"/>
<path d="M4900 6399 c-192 -21 -407 -76 -616 -159 -202 -80 -189 -70 -243
-190 -99 -222 -236 -422 -426 -618 l-113 -117 82 -24 c228 -68 520 -191 752
-318 612 -333 1103 -808 1466 -1418 l83 -139 9 69 c10 86 -7 428 -30 575 -57
376 -213 749 -433 1039 l-62 81 76 535 c41 294 75 545 75 558 0 19 -12 29 -57
50 -150 68 -367 98 -563 76z"/>
<path d="M3165 5635 c-97 -70 -249 -194 -243 -200 2 -2 60 -13 128 -25 69 -11
137 -23 151 -26 26 -5 26 -5 33 78 4 46 14 115 22 153 16 81 17 85 7 85 -5 0
-48 -29 -98 -65z"/>
<path d="M2833 5385 c-19 -14 -39 -56 -25 -54 11 1 65 69 55 69 -5 0 -18 -7
-30 -15z"/>
<path d="M2440 5262 c-267 -115 -331 -172 -265 -237 13 -14 35 -25 48 -25 13
0 75 24 138 54 63 29 131 60 153 67 57 20 86 52 86 93 0 25 -7 40 -26 55 -35
27 -56 26 -134 -7z"/>
<path d="M3180 4755 c-196 -27 -374 -84 -580 -185 -112 -54 -144 -75 -285
-180 -97 -74 -272 -247 -348 -347 -322 -421 -446 -977 -337 -1501 27 -129 129
-418 179 -508 30 -55 158 -233 217 -304 422 -503 1084 -744 1734 -631 753 131
1349 712 1501 1467 16 81 23 158 27 302 5 226 -6 332 -53 517 -186 725 -793
1266 -1536 1370 -132 18 -385 18 -519 0z m1143 -817 c60 -32 63 -90 9 -151
-21 -23 -83 -92 -137 -152 -55 -61 -170 -189 -256 -285 -355 -397 -359 -403
-352 -425 11 -35 6 -110 -10 -142 -37 -71 -131 -121 -205 -109 -98 16 -165 95
-167 198 l-1 57 -334 301 c-383 344 -400 361 -400 394 0 47 46 81 101 77 9 0
180 -147 380 -326 344 -308 366 -325 394 -318 17 3 49 7 72 7 31 1 49 8 70 28
15 15 190 209 388 432 198 222 369 409 380 414 27 14 42 14 68 0z"/>
<path d="M3368 2899 c-21 -12 -24 -59 -6 -77 20 -20 56 -14 74 13 15 23 15 27
0 50 -17 26 -40 31 -68 14z"/>
<path d="M1178 4157 c-35 -15 -827 -823 -840 -856 -11 -30 6 -77 33 -91 10 -6
31 -10 48 -10 27 0 67 37 322 295 161 162 294 294 296 292 2 -2 -6 -30 -17
-63 -12 -32 -34 -111 -50 -174 -218 -857 37 -1777 664 -2403 391 -389 880
-630 1451 -713 183 -27 506 -25 695 5 536 83 1006 311 1384 671 112 106 128
162 62 205 -44 29 -80 12 -185 -89 -424 -405 -954 -629 -1541 -652 -756 -30
-1511 326 -1964 926 -411 544 -572 1228 -445 1889 27 138 103 391 114 379 4
-3 185 -762 185 -774 0 -15 50 -44 75 -44 48 0 79 38 72 87 -9 59 -246 1055
-258 1084 -6 15 -22 31 -35 38 -30 13 -32 13 -66 -2z"/>
<path d="M5803 3118 c-19 -21 -21 -41 -27 -215 l-7 -193 25 -25 c30 -30 74
-33 107 -6 24 19 24 23 27 219 3 196 3 201 -19 221 -30 28 -80 27 -106 -1z"/>
<path d="M5754 2429 c-12 -6 -26 -21 -32 -33 -18 -38 -102 -325 -102 -349 0
-52 53 -87 105 -67 32 12 51 53 98 210 52 170 53 182 25 213 -27 31 -64 41
-94 26z"/>
<path d="M5478 1770 c-9 -6 -28 -31 -43 -57 -15 -27 -59 -92 -96 -145 -52 -73
-69 -105 -69 -130 0 -51 24 -78 69 -78 50 0 71 22 177 181 67 99 84 133 84
162 0 58 -70 97 -122 67z"/>
</g>
</svg>
